<svg xmlns="http://www.w3.org/2000/svg" width="126.307" height="164.333" viewBox="0 0 126.307 164.333"><defs><style>.a{opacity:0.69;}.b{fill:#f74b42;}</style></defs><g class="a" transform="translate(-56.313 0)"><path class="b" d="M173.66,66.364h-3.2V51.378c0-27.719-22-50.874-49.49-51.368-.751-.014-2.252-.014-3,0C90.471.5,68.475,23.659,68.475,51.378V66.364h-3.2c-4.935,0-8.96,5.092-8.96,11.381v75.166c0,6.282,4.025,11.421,8.96,11.421H173.66c4.935,0,8.96-5.14,8.96-11.421V77.745C182.62,71.457,178.6,66.364,173.66,66.364Zm-44.039,48.888v22.712a4.849,4.849,0,0,1-4.78,4.8H114.093a4.849,4.849,0,0,1-4.78-4.8V115.252a13.515,13.515,0,0,1-3.994-9.722c0-7.2,5.568-13.392,12.647-13.678.75-.03,2.253-.03,3,0,7.079.286,12.647,6.475,12.647,13.678A13.519,13.519,0,0,1,129.621,115.252Zm19.732-48.888H89.58V51.378a29.888,29.888,0,1,1,59.773,0V66.364Z"/></g></svg>