<svg xmlns="http://www.w3.org/2000/svg" width="40.6" height="35.34" viewBox="0 0 40.6 35.34"><defs><style>.a{fill:#f74b42;}</style></defs><g transform="translate(-69 -82.584)"><g transform="translate(69 86.501)"><path class="a" d="M86.712,91.234a2.716,2.716,0,0,0-.077-.276c-.012-.037-.026-.073-.04-.109-.026-.068-.055-.136-.087-.2q-.029-.06-.061-.119t-.053-.092q-.051-.086-.108-.167A2.791,2.791,0,0,0,86.069,90l-.008-.009a2.762,2.762,0,0,0-.473-.413l-.059-.04a2.734,2.734,0,0,0-.532-.27l-.046-.017a2.773,2.773,0,0,0-.355-.1l-.028-.006a2.757,2.757,0,0,0-.542-.053H71.753A2.75,2.75,0,0,0,69.47,90.3l-.036.055a2.752,2.752,0,0,0-.267.537l-.022.064a2.754,2.754,0,0,0-.145.883v14.676a2.753,2.753,0,0,0,2.753,2.753h3.891a1.825,1.825,0,0,1,1.516.8l-.716,2.491L75.86,114.6l-.013.046s0,.009,0,.014l-.009.032,0,.016c0,.01-.005.021-.007.031l0,.015-.008.036a.064.064,0,0,0,0,.009,2.756,2.756,0,0,0-.059.6v2.331a2.755,2.755,0,0,0,2.754,2.784h0a2.753,2.753,0,0,0,2.364-1.342l5.52-9.247a2.753,2.753,0,0,0,.389-1.411V91.841a2.789,2.789,0,0,0-.045-.5C86.727,91.3,86.72,91.269,86.712,91.234Z" transform="translate(-69 -89.088)"/><path class="a" d="M153.1,91.84a2.744,2.744,0,0,0-.806-1.947l-.051-.049c-.029-.028-.059-.055-.089-.081a2.832,2.832,0,0,0-.23-.18l-.074-.05-.04-.026-.069-.042q-.054-.032-.109-.061l-.061-.031a2.627,2.627,0,0,0-.253-.11l-.046-.017a2.774,2.774,0,0,0-.355-.1l-.028-.006a2.757,2.757,0,0,0-.542-.053H138.075a2.75,2.75,0,0,0-2.283,1.214l-.036.055a2.752,2.752,0,0,0-.267.537c-.008.021-.015.042-.022.064a2.747,2.747,0,0,0-.145.883v14.676a2.753,2.753,0,0,0,2.753,2.753h3.891a1.826,1.826,0,0,1,1.516.8l-.716,2.491-.584,2.033-.013.046s0,.009,0,.014l-.009.032,0,.016-.007.031,0,.015c0,.012-.006.024-.008.036a.065.065,0,0,0,0,.009,2.756,2.756,0,0,0-.059.6v2.331a2.755,2.755,0,0,0,2.754,2.784h0a2.753,2.753,0,0,0,2.364-1.342l5.52-9.247a2.753,2.753,0,0,0,.389-1.411V91.84Z" transform="translate(-112.503 -89.087)"/></g><g transform="translate(69 82.584)"><path class="a" d="M75.751,111.223a2.755,2.755,0,0,0,2.754,2.784h0a2.753,2.753,0,0,0,2.364-1.342l5.52-9.247a2.753,2.753,0,0,0,.389-1.411V85.337a2.753,2.753,0,0,0-2.753-2.753H71.753A2.753,2.753,0,0,0,69,85.337v14.676a2.753,2.753,0,0,0,2.753,2.753h3.891a1.826,1.826,0,0,1,1.516.8l-1.3,4.524a2.767,2.767,0,0,0-.108.781v2.351Z" transform="translate(-69 -82.584)"/><path class="a" d="M69,85.337V97.611a2.753,2.753,0,0,0,2.753,2.753h3.891a1.835,1.835,0,0,1,1.764,2.342l-1.548,5.386a2.753,2.753,0,0,0,2.646,3.513h0a2.753,2.753,0,0,0,2.364-1.342l5.52-9.247A2.754,2.754,0,0,0,86.78,99.6V85.337a2.753,2.753,0,0,0-2.753-2.753H71.753A2.753,2.753,0,0,0,69,85.337Z" transform="translate(-69 -82.584)"/><g transform="translate(22.82)"><path class="a" d="M142.076,111.223a2.755,2.755,0,0,0,2.754,2.784h0a2.753,2.753,0,0,0,2.364-1.342l5.52-9.247a2.753,2.753,0,0,0,.389-1.411V85.337a2.753,2.753,0,0,0-2.753-2.753H138.077a2.753,2.753,0,0,0-2.753,2.753v14.676a2.753,2.753,0,0,0,2.753,2.753h3.891a1.826,1.826,0,0,1,1.516.8l-1.3,4.524a2.767,2.767,0,0,0-.108.781v2.351Z" transform="translate(-135.324 -82.584)"/><path class="a" d="M135.325,85.337V97.611a2.753,2.753,0,0,0,2.753,2.753h3.891a1.835,1.835,0,0,1,1.764,2.342l-1.548,5.386a2.753,2.753,0,0,0,2.646,3.513h0a2.753,2.753,0,0,0,2.364-1.342l5.52-9.247A2.753,2.753,0,0,0,153.1,99.6V85.337a2.753,2.753,0,0,0-2.753-2.753H138.078A2.753,2.753,0,0,0,135.325,85.337Z" transform="translate(-135.325 -82.584)"/></g></g></g></svg>